# File created by Blade
# Date/Time:  Tue Apr 07 21:12:38 2015
# Frame Rate: 120.000 fps
#------------------------------------------------------
:FULLY-SPECIFIED
:DEGREES
979
root 6.677233 27.692072 9.644186 737.700343 -67.117273 -506.213017
Spine -61.701873 -22.089788 4.149104
Head -77.366566 -0.505122 9.588303
LeftShoulder -10.430002 -2.115642 39.322573
LeftArm 155.038342 -32.483901 -132.189112
LeftForeArm 32.334821 0.000000 115.086782
LeftHand -12.759522 -0.000000 -5.968882
LeftHandThumb1 -26.253704 0.000000 33.147579
RightShoulder -22.549102 55.732205 -56.541840
RightArm 80.881346 50.243887 91.096194
RightForeArm -27.963696 -0.000000 120.690857
RightHand -6.269600 -0.000000 12.361980
RightHandThumb1 -24.326973 -0.000000 -32.862282
LeftUpLeg 16.446725 -7.708355 18.394619
LeftLeg 23.146287 -0.000000 -0.000000
LeftFoot 41.956127 9.063783 1.056751
LeftToeBase 108.395983 -0.000000 -0.000000
RightUpLeg -118.092268 -23.323460 5.504574
RightLeg 123.694689 -0.000000 -0.000000
RightFoot 48.826981 2.716053 -2.895642
RightToeBase 35.827867 -0.000000 -0.000000
980
root 6.679603 27.682159 9.633202 738.013769 -67.133601 -506.374880
Spine -61.880918 -22.055167 4.234680
Head -77.412191 -0.429434 9.688892
LeftShoulder -10.431825 -2.138018 39.320799
LeftArm 155.041692 -32.420844 -132.148036
LeftForeArm 32.252581 -0.000000 115.072166
LeftHand -12.762644 -0.000000 -6.193742
LeftHandThumb1 -26.253704 0.000000 33.147579
RightShoulder -22.606816 55.684656 -56.578099
RightArm 80.904501 50.264840 91.185357
RightForeArm -27.895380 -0.000000 120.675764
RightHand -6.242681 -0.000000 12.320519
RightHandThumb1 -24.326973 -0.000000 -32.862282
LeftUpLeg 16.357733 -7.570237 18.470066
LeftLeg 23.031930 -0.000000 -0.000000
LeftFoot 42.022626 9.132338 1.018082
LeftToeBase 108.164689 -0.000000 -0.000000
RightUpLeg -118.090647 -23.214610 5.568131
RightLeg 124.138983 -0.000000 -0.000000
RightFoot 48.896330 2.904418 -2.895791
RightToeBase 35.600603 -0.000000 -0.000000
981
root 6.686099 27.672439 9.623130 738.294914 -67.150117 -506.522619
Spine -62.060051 -22.041388 4.327792
Head -77.455791 -0.308913 9.795978
LeftShoulder -10.438613 -2.139553 39.317596
LeftArm 155.060403 -32.361666 -132.079242
LeftForeArm 32.215540 -0.000000 115.019831
LeftHand -12.744597 -0.000000 -6.282626
LeftHandThumb1 -26.253704 0.000000 33.147579
RightShoulder -22.643405 55.682023 -56.601658
RightArm 80.879356 50.297179 91.229767
RightForeArm -27.824212 -0.000000 120.662729
RightHand -6.240737 -0.000000 12.318695
RightHandThumb1 -24.326973 -0.000000 -32.862282
LeftUpLeg 16.298007 -7.395717 18.560201
LeftLeg 22.877710 -0.000000 -0.000000
LeftFoot 42.078160 9.130453 1.168334
LeftToeBase 108.153060 -0.000000 -0.000000
RightUpLeg -118.056988 -23.107199 5.636839
RightLeg 124.582344 -0.000000 -0.000000
RightFoot 48.926516 2.866026 -2.817276
RightToeBase 35.656121 -0.000000 -0.000000
982
root 6.691045 27.662281 9.612234 738.566796 -67.151021 -506.655372
Spine -62.249603 -22.081409 4.447445
Head -77.500945 -0.127909 9.924674
LeftShoulder -10.502154 -2.174078 39.353790
LeftArm 154.974825 -32.331301 -131.949194
LeftForeArm 32.231851 -0.000000 114.995680
LeftHand -12.769368 -0.000000 -6.424611
LeftHandThumb1 -26.253704 0.000000 33.147579
RightShoulder -22.561047 55.617334 -56.445818
RightArm 81.040708 50.307036 91.390836
RightForeArm -27.789420 -0.000000 120.651268
RightHand -6.280479 0.000000 12.374431
RightHandThumb1 -24.326973 -0.000000 -32.862282
LeftUpLeg 16.227032 -7.294314 18.616250
LeftLeg 22.740382 -0.000000 -0.000000
LeftFoot 42.007716 9.344523 1.241385
LeftToeBase 107.914087 -0.000000 -0.000000
RightUpLeg -118.015644 -23.030258 5.681275
RightLeg 125.009723 -0.000000 -0.000000
RightFoot 48.973965 2.906047 -2.730272
RightToeBase 35.554921 -0.000000 -0.000000
983
root 6.699482 27.657479 9.598716 738.855790 -67.137135 -506.921678
Spine -62.314164 -22.136615 4.584461
Head -77.594352 0.063406 10.057309
LeftShoulder -10.538211 -2.222063 39.369411
LeftArm 154.951517 -32.349164 -131.811555
LeftForeArm 32.241891 -0.000000 114.946000
LeftHand -12.743791 -0.000000 -6.489252
LeftHandThumb1 -26.253704 0.000000 33.147579
RightShoulder -22.513349 55.657790 -56.315291
RightArm 81.103868 50.257698 91.446797
RightForeArm -27.694291 0.000000 120.640458
RightHand -6.299944 -0.000000 12.392029
RightHandThumb1 -24.326973 -0.000000 -32.862282
LeftUpLeg 16.279292 -7.199776 18.727501
LeftLeg 22.589790 -0.000000 -0.000000
LeftFoot 41.913430 9.474881 1.553627
LeftToeBase 107.840285 -0.000000 -0.000000
RightUpLeg -117.867969 -22.949770 5.757972
RightLeg 125.457064 -0.000000 -0.000000
RightFoot 48.930413 2.683077 -2.543652
RightToeBase 35.841710 -0.000000 -0.000000
984
root 6.707154 27.648729 9.589809 739.101542 -67.138776 -507.072568
Spine -62.463652 -22.178379 4.717395
Head -77.673534 0.220569 10.198409
LeftShoulder -10.475346 -1.766484 39.274147
LeftArm 155.542962 -32.136336 -131.991138
LeftForeArm 32.192053 -0.000000 114.835023
LeftHand -12.736795 -0.000000 -6.453382
LeftHandThumb1 -26.253704 0.000000 33.147579
RightShoulder -22.520576 55.736414 -56.262831
RightArm 81.049602 50.277965 91.443881
RightForeArm -27.741226 -0.000000 120.639311
RightHand -6.297828 -0.000000 12.527020
RightHandThumb1 -24.326973 -0.000000 -32.862282
LeftUpLeg 16.249232 -7.139506 18.771161
LeftLeg 22.484397 -0.000000 -0.000000
LeftFoot 41.807301 9.656056 1.744350
LeftToeBase 107.623332 -0.000000 -0.000000
RightUpLeg -117.769125 -22.902151 5.783346
RightLeg 125.862668 -0.000000 -0.000000
RightFoot 49.005976 2.758619 -2.492556
RightToeBase 35.880013 -0.000000 -0.000000
985
root 6.713136 27.639478 9.584059 739.258341 -67.148568 -507.123614
Spine -62.620780 -22.223626 4.811407
Head -77.721970 0.358715 10.276758
LeftShoulder -10.446015 -1.623012 39.285486
LeftArm 155.768087 -32.132067 -132.049411
LeftForeArm 32.105282 -0.000000 114.769905
LeftHand -12.738549 0.000000 -6.315770
LeftHandThumb1 -26.253704 0.000000 33.147579
RightShoulder -22.425708 55.795964 -56.120807
RightArm 81.055375 50.320794 91.424855
RightForeArm -27.753316 -0.000000 120.629942
RightHand -6.324676 -0.000000 12.610420
RightHandThumb1 -24.326973 -0.000000 -32.862282
LeftUpLeg 16.204785 -7.150930 18.747949
LeftLeg 22.410235 -0.000000 -0.000000
LeftFoot 41.718342 9.901213 1.787120
LeftToeBase 107.734940 -0.000000 -0.000000
RightUpLeg -117.676886 -22.872902 5.769620
RightLeg 126.267317 -0.000000 -0.000000
RightFoot 49.043763 2.826009 -2.453885
RightToeBase 35.980772 -0.000000 -0.000000
